<svg width="77" height="70" viewBox="0 0 77 70" fill="none" xmlns="http://www.w3.org/2000/svg">
<g clip-path="url(#clip0_146_7063)">
<path d="M10.3806 65.0553C10.7458 65.5334 10.936 66.1205 10.9199 66.7201C10.9348 67.1647 10.8315 67.6053 10.6203 67.9977C10.4091 68.3901 10.0975 68.7204 9.71684 68.9555C8.91566 69.4845 7.75584 69.7486 6.23737 69.7477H0V58.7644H5.9151C7.39162 58.7644 8.50437 59.0259 9.25333 59.549C10.0023 60.0721 10.3794 60.7675 10.3845 61.6354C10.3921 62.1231 10.2584 62.6028 9.99931 63.0174C9.71651 63.4458 9.31905 63.7876 8.85147 64.0045C9.45148 64.2035 9.98191 64.568 10.3806 65.0553ZM3.67592 61.3539V62.9855H5.41436C6.22753 62.9855 6.63368 62.7134 6.63282 62.1691C6.63196 61.6248 6.22581 61.353 5.41436 61.3539H3.67592ZM7.15538 66.2959C7.15538 65.7202 6.7441 65.4328 5.92152 65.4336H3.66949V67.1557H5.9151C6.73682 67.1557 7.14811 66.8678 7.14897 66.2921" fill="#0E7505"/>
<path d="M18.567 65.7635V69.749H14.8345V65.7164L10.6592 58.7644H14.597L16.8593 62.5626L19.137 58.7644H22.7423L18.567 65.7635Z" fill="#0E7505"/>
<path d="M35.2891 63.9575H38.5311V68.6041C37.8354 69.0726 37.0655 69.4222 36.2534 69.6383C35.4254 69.8738 34.5687 69.9951 33.7073 69.9988C32.6037 70.0164 31.5124 69.7663 30.5283 69.2702C29.616 68.8081 28.852 68.1022 28.3225 67.2323C27.7992 66.327 27.5239 65.3017 27.5239 64.2581C27.5239 63.2146 27.7992 62.1892 28.3225 61.284C28.8562 60.4092 29.6291 59.7025 30.5514 59.246C31.5548 58.7473 32.6648 58.4965 33.7869 58.5149C34.7867 58.4986 35.7794 58.6832 36.7053 59.0575C37.5393 59.4001 38.2752 59.9413 38.8482 60.6331L36.4601 62.7207C35.7642 61.9149 34.9361 61.512 33.9757 61.512C33.154 61.512 32.5004 61.7578 32.0151 62.2495C31.5298 62.7411 31.2875 63.4103 31.2884 64.2569C31.2884 65.0848 31.5281 65.7492 32.0074 66.2502C32.4867 66.7512 33.1287 67.0022 33.9333 67.003C34.4003 67.005 34.863 66.9145 35.2943 66.7368L35.2891 63.9575Z" fill="#0E7505"/>
<path d="M49.4701 61.1692V69.7515H46.0741V68.9389C45.7631 69.2595 45.3848 69.5083 44.9661 69.6675C44.5374 69.8319 44.0814 69.9149 43.6218 69.912C42.5253 69.912 41.6454 69.5796 40.982 68.9147C40.3186 68.2498 39.9861 67.2482 39.9844 65.91V61.1692H43.5589V65.2961C43.5589 65.882 43.6539 66.3006 43.8439 66.5519C43.9423 66.6776 44.07 66.7774 44.2162 66.8429C44.3623 66.9084 44.5223 66.9375 44.6823 66.9277C44.8497 66.9297 45.0152 66.8932 45.166 66.8212C45.3168 66.7492 45.4488 66.6435 45.5515 66.5125C45.7827 66.2348 45.8986 65.7979 45.8995 65.2018V61.1692H49.4701Z" fill="#0E7505"/>
<path d="M51.2805 59.9657C51.0945 59.8042 50.9455 59.6051 50.8434 59.3818C50.7413 59.1585 50.6885 58.9161 50.6885 58.6709C50.6885 58.4257 50.7413 58.1834 50.8434 57.9601C50.9455 57.7368 51.0945 57.5377 51.2805 57.3762C51.6759 57.0365 52.1955 56.8667 52.8392 56.8667C53.4829 56.8667 54.0046 57.0289 54.4043 57.3533C54.5925 57.5041 54.7432 57.6958 54.845 57.9135C54.9467 58.1312 54.9967 58.3692 54.9911 58.6092C54.9982 58.8617 54.9493 59.1127 54.8479 59.3445C54.7466 59.5762 54.5951 59.783 54.4043 59.9504C54.0148 60.3011 53.4931 60.4764 52.8392 60.4764C52.1852 60.4764 51.6657 60.3066 51.2805 59.9669M51.052 61.1668H54.6264V69.7491H51.052V61.1668Z" fill="#0E7505"/>
<path d="M65.7762 58.1123V69.7529H62.3802V69.0472C61.8666 69.6221 61.0757 69.9095 60.0074 69.9095C59.2731 69.9158 58.5501 69.729 57.9121 69.3682C57.2673 69.001 56.7406 68.46 56.3932 67.8079C56.0242 67.0786 55.832 66.2739 55.832 65.4579C55.832 64.6419 56.0242 63.8371 56.3932 63.1078C56.7411 62.4584 57.2661 61.919 57.9082 61.5514C58.5462 61.1905 59.2692 61.0038 60.0036 61.01C60.9631 61.01 61.6958 61.2559 62.2017 61.7475V58.1123H65.7762ZM61.8666 66.6972C62.1302 66.3991 62.262 65.9831 62.262 65.4489C62.262 64.9148 62.1302 64.5017 61.8666 64.2096C61.7375 64.0711 61.5809 63.9606 61.4067 63.885C61.2325 63.8095 61.0444 63.7704 60.8542 63.7704C60.664 63.7704 60.4759 63.8095 60.3017 63.885C60.1275 63.9606 59.9709 64.0711 59.8418 64.2096C59.585 64.5013 59.4451 64.9153 59.4451 65.4489C59.4451 65.9826 59.5735 66.3991 59.8418 66.6972C59.9696 66.838 60.1257 66.9505 60.3001 67.0275C60.4745 67.1046 60.6633 67.1444 60.8542 67.1444C61.0451 67.1444 61.2339 67.1046 61.4083 67.0275C61.5827 66.9505 61.7388 66.838 61.8666 66.6972Z" fill="#0E7505"/>
<path d="M76.5165 66.2808H70.5051C70.6229 66.5943 70.8466 66.8576 71.1381 67.0259C71.4779 67.2075 71.8605 67.2954 72.2461 67.2807C72.5703 67.2889 72.8935 67.2415 73.2014 67.1406C73.5063 67.0204 73.7918 66.8564 74.0488 66.654L75.9156 68.52C75.0708 69.4413 73.8104 69.902 72.1344 69.902C71.1852 69.9215 70.2441 69.7254 69.383 69.3288C68.6312 68.9814 67.9948 68.4287 67.5482 67.7354C67.1261 67.0443 66.9022 66.2519 66.9009 65.4438C66.8995 64.6357 67.1207 63.8425 67.5405 63.15C67.9689 62.4748 68.576 61.9293 69.2957 61.5731C70.0596 61.2092 70.8948 61.0165 71.7422 61.0086C72.5896 61.0006 73.4283 61.1777 74.199 61.5273C74.909 61.8627 75.507 62.3932 75.9221 63.0557C76.35 63.7249 76.564 64.5248 76.564 65.4554C76.564 65.5072 76.5486 65.7845 76.5178 66.2872M70.9186 63.7295C70.6649 63.9478 70.4967 64.2477 70.4435 64.5766H73.2271C73.1703 64.251 73.0026 63.9547 72.752 63.7372C72.4946 63.5281 72.1691 63.4194 71.8366 63.4315C71.5045 63.4186 71.1787 63.5243 70.9186 63.7295Z" fill="#0E7505"/>
<path d="M54.1731 23.4072C54.1731 20.2914 53.2417 17.2456 51.4968 14.655C49.7518 12.0643 47.2717 10.0452 44.3699 8.85285C41.4682 7.66055 38.2753 7.34865 35.1949 7.95661C32.1145 8.56456 29.285 10.0651 27.0642 12.2683C24.8434 14.4716 23.3311 17.2787 22.7186 20.3347C22.106 23.3906 22.4206 26.5581 23.6227 29.4367C24.8248 32.3152 26.8604 34.7755 29.4719 36.5063C32.0835 38.2372 35.1538 39.1609 38.2946 39.1606C40.3799 39.1606 42.4448 38.7531 44.3713 37.9614C46.2979 37.1698 48.0484 36.0093 49.5228 34.5465C50.9973 33.0836 52.1669 31.347 52.9648 29.4357C53.7627 27.5244 54.1732 25.4759 54.1731 23.4072Z" fill="white"/>
<path d="M62.2734 23.783C62.277 27.4761 61.4118 31.1192 59.7466 34.4223C58.0813 37.7254 55.662 40.5974 52.6811 42.8098L38.2535 54.6975L23.9119 42.8098C20.9325 40.5964 18.5146 37.724 16.8503 34.4211C15.1861 31.1181 14.3213 27.4756 14.3247 23.783C14.3247 10.6483 25.0559 0 38.2971 0C51.5384 0 62.2734 10.6483 62.2734 23.783ZM52.6785 23.8008C52.6785 20.9793 51.8351 18.2212 50.255 15.8752C48.6749 13.5292 46.4291 11.7007 43.8014 10.621C41.1738 9.54127 38.2825 9.25876 35.493 9.8092C32.7035 10.3596 30.1412 11.7183 28.1301 13.7134C26.119 15.7085 24.7495 18.2504 24.1946 21.0177C23.6398 23.785 23.9245 26.6533 25.0129 29.26C26.1013 31.8668 27.9445 34.0947 30.3093 35.6623C32.6741 37.2298 35.4543 38.0665 38.2984 38.0665C42.1122 38.0665 45.7699 36.5635 48.4667 33.8882C51.1635 31.2128 52.6785 27.5843 52.6785 23.8008Z" fill="#C10016"/>
<path d="M51.4745 23.8594C51.4745 21.2736 50.7016 18.7457 49.2534 16.5956C47.8053 14.4455 45.747 12.7697 43.3388 11.7801C40.9306 10.7904 38.2807 10.5314 35.7241 11.0358C33.1676 11.5402 30.8192 12.7853 28.9759 14.6137C27.1327 16.4421 25.8773 18.7717 25.3686 21.3079C24.86 23.8441 25.1208 26.4729 26.1181 28.8621C27.1155 31.2512 28.8045 33.2933 30.9717 34.7301C33.1389 36.1669 35.687 36.934 38.2936 36.9342C41.7892 36.9342 45.1416 35.5567 47.6134 33.1048C50.0853 30.6528 51.4742 27.3272 51.4745 23.8594Z" fill="#4CAE04"/>
<path d="M38.2949 30.7948C34.1375 26.445 30.4256 22.2265 26.2695 17.8767" stroke="white" stroke-width="4" stroke-miterlimit="10"/>
<path d="M38.2935 22.1028L47.3414 13.1282" stroke="white" stroke-width="4" stroke-miterlimit="10"/>
<path d="M38.2983 10.1694V37.1724" stroke="white" stroke-width="4" stroke-miterlimit="10"/>
<path d="M27.3987 15.6849L25.7539 17.1697L37.6449 30.1337L39.2897 28.649L27.3987 15.6849Z" fill="white"/>
<path d="M39.4193 10.7898H37.1865V38.0118H39.4193V10.7898Z" fill="white"/>
<path d="M48.7091 14.1239L47.1685 12.5955L37.7256 21.9632L39.2663 23.4916L48.7091 14.1239Z" fill="white"/>
</g>
<defs>
<clipPath id="clip0_146_7063">
<rect width="76.5625" height="70" fill="white"/>
</clipPath>
</defs>
</svg>
